<?xml version="1.0" encoding="UTF-8" standalone="no"?>
<!-- Created with Inkscape (http://www.inkscape.org/) -->

<svg
   xmlns:dc="http://purl.org/dc/elements/1.1/"
   xmlns:cc="http://creativecommons.org/ns#"
   xmlns:rdf="http://www.w3.org/1999/02/22-rdf-syntax-ns#"
   xmlns:svg="http://www.w3.org/2000/svg"
   xmlns="http://www.w3.org/2000/svg"
   xmlns:sodipodi="http://sodipodi.sourceforge.net/DTD/sodipodi-0.dtd"
   xmlns:inkscape="http://www.inkscape.org/namespaces/inkscape"
   width="210mm"
   height="297mm"
   viewBox="0 0 210 297"
   version="1.1"
   id="svg908"
   inkscape:version="0.92.4 (5da689c313, 2019-01-14)"
   sodipodi:docname="NOT_SKEWED_LOGO_BY_VILLE.svg">
  <defs
     id="defs902">
    <clipPath
       clipPathUnits="userSpaceOnUse"
       id="clipPath861">
      <path
         d="M 0,1000 H 1000 V 0 H 0 Z"
         id="path859"
         inkscape:connector-curvature="0" />
    </clipPath>
  </defs>
  <sodipodi:namedview
     id="base"
     pagecolor="#ffffff"
     bordercolor="#666666"
     borderopacity="1.0"
     inkscape:pageopacity="0.0"
     inkscape:pageshadow="2"
     inkscape:zoom="0.35"
     inkscape:cx="-77.142857"
     inkscape:cy="560"
     inkscape:document-units="mm"
     inkscape:current-layer="g857"
     showgrid="false"
     inkscape:window-width="1920"
     inkscape:window-height="986"
     inkscape:window-x="-11"
     inkscape:window-y="-11"
     inkscape:window-maximized="1" />
  <metadata
     id="metadata905">
    <rdf:RDF>
      <cc:Work
         rdf:about="">
        <dc:format>image/svg+xml</dc:format>
        <dc:type
           rdf:resource="http://purl.org/dc/dcmitype/StillImage" />
        <dc:title></dc:title>
      </cc:Work>
    </rdf:RDF>
  </metadata>
  <g
     inkscape:label="Taso 1"
     inkscape:groupmode="layer"
     id="layer1">
    <g
       id="g857"
       clip-path="url(#clipPath861)"
       style="fill:#008000"
       transform="matrix(0.99721626,0.06604701,0.06604701,-0.99721626,-428.64224,639.54749)"
       inkscape:export-xdpi="96"
       inkscape:export-ydpi="96">
      <g
         id="g863"
         transform="translate(349.3359,390.1455)"
         style="fill:#008000" />
      <g
         id="g867"
         transform="translate(386.4482,366.0635)"
         style="fill:#008000" />
      <g
         id="g871"
         transform="translate(450.6738,365.7812)"
         style="fill:#008000" />
      <g
         id="g875"
         transform="translate(493.7666,410.0078)"
         style="fill:#008000" />
      <g
         id="g879"
         transform="translate(547.1465,385.4297)"
         style="fill:#008000" />
      <g
         id="g883"
         transform="translate(581.9326,402.1201)"
         style="fill:#008000" />
      <g
         id="g887"
         transform="translate(650.5918,366.0635)"
         style="fill:#008000" />
      <g
         id="g891"
         transform="translate(703.9707,385.4297)"
         style="fill:#008000" />
      <g
         id="g895"
         transform="rotate(-0.32445529,84226.845,-87462.013)"
         style="fill:#008000">
        <path
           d="m 0,0 0.011,0.008 c -1.755,1.029 -3.521,2.042 -5.238,3.135 -9.498,6.048 -17.971,13.106 -22.331,23.918 -3.69,9.148 -2.607,17.921 2.236,26.449 5.176,9.115 13.335,14.945 21.62,20.831 2.76,1.96 17.352,11.034 17.273,11.221 -0.52,0.025 -1.044,0.111 -1.558,0.067 -8.032,-0.685 -16.066,-1.36 -24.092,-2.127 -0.315,-0.03 -0.625,-0.148 -0.93,-0.305 -1.082,1.57 -2.478,3.721 -3.924,6.281 3.027,0.155 6.056,0.289 9.074,0.538 9.093,0.75 18.175,1.644 27.269,2.376 1.854,0.149 3.275,0.743 4.226,2.325 1.574,2.62 3.117,5.26 4.736,7.996 -16.952,-1.546 -33.488,-3.055 -49.519,-4.518 -0.865,2.165 -1.632,4.438 -2.221,6.769 16.755,1.476 33.507,2.984 50.271,4.359 2.226,0.182 2.678,0.965 2.501,2.998 -0.615,7.058 -0.871,7.335 -7.714,6.738 -15.418,-1.345 -30.835,-2.692 -46.254,-4.022 0.019,0.597 0.056,1.193 0.113,1.788 0.147,1.509 0.463,3.004 0.918,4.479 15.171,1.275 30.338,2.589 45.505,3.905 0.615,0.053 1.222,0.198 2.09,0.344 -2.28,3.683 -5.312,6.294 -8.43,8.783 -0.538,0.429 -1.629,0.292 -2.449,0.225 -10.307,-0.849 -20.612,-1.728 -30.917,-2.596 1.812,2.339 3.89,4.568 6.118,6.652 5.999,0.458 11.994,0.973 17.991,1.475 0.085,0.27 0.171,0.54 0.257,0.811 -1.92,0.96 -3.884,1.943 -5.831,2.917 0,0 -0.002,0.001 -0.003,0.001 -1.222,0.612 -2.41,1.206 -3.661,1.832 0.022,0.016 0.044,0.026 0.066,0.042 -4.315,2.266 -11.749,6.197 -19.229,10.156 -34.74,-10.669 -60,-42.994 -60,-81.231 0,-46.93 38.045,-84.974 84.975,-84.974 4.301,0 8.492,0.421 12.621,1.039 z"
           style="fill:#ff9700;fill-opacity:1;fill-rule:nonzero;stroke:none"
           id="path897"
           inkscape:connector-curvature="0" />
      </g>
      <g
         id="g899"
         transform="rotate(-0.32445529,112408.32,-88062.523)"
         style="fill:#008000">
        <path
           d="m 0,0 c -4.963,0 -9.797,-0.514 -14.526,-1.33 9.439,-5.341 17.28,-9.952 17.28,-9.952 l -0.037,-0.034 c 6.752,-3.477 12.997,-7.716 18.394,-13.083 8.701,-8.651 13.66,-18.752 10.613,-31.371 -1.686,-6.979 -5.447,-12.954 -10.709,-17.727 -4.426,-4.014 -9.417,-7.403 -14.119,-11.119 -0.662,-0.522 -7.369,-4.354 -8.238,-4.887 -3.475,-2.13 -6.845,-4.432 -10.254,-6.67 0.051,-0.199 0.101,-0.397 0.152,-0.596 0.842,-0.024 1.692,-0.132 2.527,-0.061 8.179,0.693 16.359,1.374 24.526,2.187 0.216,0.021 0.436,0.079 0.656,0.158 2.643,-1.448 5.25,-3.404 7.39,-6.041 -9.84,-0.816 -19.692,-1.476 -29.539,-2.21 -3.456,-0.257 -6.904,-0.779 -10.362,-0.845 -2.33,-0.044 -3.936,-0.933 -5.032,-2.824 -1.426,-2.459 -2.732,-4.988 -4.09,-7.488 18.006,1.552 35.608,3.069 53.323,4.596 0.513,-2.106 0.787,-4.448 0.763,-7.048 -18.393,-1.539 -36.666,-3.069 -55.11,-4.613 -0.368,-3.045 0.235,-5.994 1.397,-8.799 0.209,-0.506 1.489,-0.866 2.235,-0.805 9.8,0.791 19.593,1.669 29.387,2.527 6.917,0.605 13.838,1.179 20.748,1.855 -0.574,-2.235 -1.307,-4.363 -2.17,-6.384 -15.035,-1.277 -30.066,-2.607 -45.098,-3.934 -0.341,-0.029 -0.677,-0.113 -1.016,-0.171 -0.149,-0.224 -0.297,-0.448 -0.445,-0.671 2.718,-2.735 5.417,-5.491 8.183,-8.177 0.344,-0.334 1.059,-0.455 1.58,-0.412 10.115,0.842 20.237,1.712 30.399,2.584 -2.086,-2.694 -4.351,-5.099 -6.645,-7.225 -5.251,-0.41 -10.474,-0.818 -15.688,-1.224 -0.084,-0.111 -0.168,-0.221 -0.251,-0.331 2.855,-1.474 5.697,-2.974 8.585,-4.378 -0.04,-0.029 -0.075,-0.049 -0.115,-0.077 l 18.004,-10.211 c 35.893,9.942 62.277,42.759 62.277,81.816 C 84.975,-38.044 46.931,0 0,0"
           style="fill:#006bb6;fill-opacity:1;fill-rule:nonzero;stroke:none"
           id="path901"
           inkscape:connector-curvature="0" />
      </g>
    </g>
    <g
       aria-label="ABOA"
       transform="matrix(0.99940107,0,0,0.99940107,-412.42657,652.56226)"
       style="font-style:normal;font-weight:normal;font-size:30px;line-height:1.25;font-family:sans-serif;letter-spacing:0px;word-spacing:0px;fill:#006bb6;fill-opacity:1;stroke:none;stroke-width:0.75"
       id="text859"
       inkscape:export-xdpi="96"
       inkscape:export-ydpi="96">
      <path
         d="m 439.35254,-413.9851 4.272,9.072 h -8.544 z m 0,-13.008 -18,36 h 7.2 l 3.84,-8.16 h 13.92 l 3.84,8.16 h 7.2 z"
         style="font-style:normal;font-variant:normal;font-weight:bold;font-stretch:normal;font-size:48px;line-height:4.25;font-family:'Renner*';-inkscape-font-specification:'Renner* Bold';letter-spacing:18.41250801px;fill:#006bb6;fill-opacity:1;stroke-width:0.75"
         id="path863"
         inkscape:connector-curvature="0" />
      <path
         d="m 485.3763,-405.8731 h 5.04 c 3.36,0 5.904,1.392 5.904,4.56 0,3.168 -2.544,4.32 -5.904,4.32 h -5.04 z m 0,-5.76 v -6.96 h 4.08 c 3.36,0 4.944,1.152 4.944,3.36 0,2.256 -1.584,3.6 -4.944,3.6 z m -6.72,-12.96 v 33.6 h 11.76 c 6.96,0 12.624,-2.928 12.624,-10.08 0,-3.984 -2.544,-6.576 -6.096,-7.968 2.736,-1.2 4.176,-3.36 4.176,-6.432 0,-5.712 -4.224,-9.12 -11.664,-9.12 z"
         style="font-style:normal;font-variant:normal;font-weight:bold;font-stretch:normal;font-size:48px;line-height:4.25;font-family:'Renner*';-inkscape-font-specification:'Renner* Bold';letter-spacing:18.41250801px;fill:#006bb6;fill-opacity:1;stroke-width:0.75"
         id="path866"
         inkscape:connector-curvature="0" />
      <path
         d="m 524.58631,-407.7931 c 0,10.752 8.208,18.24 18.72,18.24 10.512,0 18.72,-7.488 18.72,-18.24 0,-10.752 -8.448,-18.24 -18.72,-18.24 -10.032,0 -18.72,7.488 -18.72,18.24 z m 6.864,0 c 0,-7.344 5.232,-12.096 11.856,-12.096 6.864,0 11.856,4.752 11.856,12.096 0,7.344 -5.232,12.096 -11.856,12.096 -6.624,0 -11.856,-4.752 -11.856,-12.096 z"
         style="font-style:normal;font-variant:normal;font-weight:bold;font-stretch:normal;font-size:48px;line-height:4.25;font-family:'Renner*';-inkscape-font-specification:'Renner* Bold';letter-spacing:18.41250801px;fill:#ff9700;fill-opacity:1;stroke-width:0.75"
         id="path868"
         inkscape:connector-curvature="0" />
      <path
         d="m 598.46506,-413.9851 4.272,9.072 h -8.544 z m 0,-13.008 -18,36 h 7.2 l 3.84,-8.16 h 13.92 l 3.84,8.16 h 7.2 z"
         style="font-style:normal;font-variant:normal;font-weight:bold;font-stretch:normal;font-size:48px;line-height:4.25;font-family:'Renner*';-inkscape-font-specification:'Renner* Bold';letter-spacing:18.41250801px;fill:#006bb6;fill-opacity:1;stroke-width:0.75"
         id="path870"
         inkscape:connector-curvature="0" />
    </g>
  </g>
</svg>
